<?xml version="1.0" encoding="UTF-8"?>
<!DOCTYPE svg PUBLIC "-//W3C//DTD SVG 1.1//EN" "http://www.w3.org/Graphics/SVG/1.1/DTD/svg11.dtd">
<svg xmlns="http://www.w3.org/2000/svg" version="1.1" width="1416px" height="1416px" style="shape-rendering:geometricPrecision; text-rendering:geometricPrecision; image-rendering:optimizeQuality; fill-rule:evenodd; clip-rule:evenodd" xmlns:xlink="http://www.w3.org/1999/xlink">
<g><path style="opacity:0.997" fill="#fefefe" d="M -0.5,756.5 C -0.5,754.5 -0.5,752.5 -0.5,750.5C 1.24728,726.656 3.08062,702.656 5,678.5C 7.79966,669.389 9.46632,660.056 10,650.5C 12.8798,643.826 14.5465,636.826 15,629.5C 16,627.833 17,626.167 18,624.5C 17.9686,618.284 19.6353,612.618 23,607.5C 25.3333,599.833 27.6667,592.167 30,584.5C 30.6667,583.833 31.3333,583.167 32,582.5C 34.1292,574.92 36.7959,567.587 40,560.5C 42.3748,555.697 45.0414,551.031 48,546.5C 48.3333,544.833 48.6667,543.167 49,541.5C 60.5496,520.939 72.5496,500.606 85,480.5C 99.2895,461.876 113.956,443.543 129,425.5C 148.177,405.663 168.677,387.163 190.5,370C 205.452,359.517 220.785,349.517 236.5,340C 241.843,337.661 247.177,335.328 252.5,333C 255.125,330.008 258.458,328.342 262.5,328C 270.941,323.228 279.608,318.894 288.5,315C 291.424,314.012 294.424,313.346 297.5,313C 304.434,309.85 311.434,306.85 318.5,304C 323.059,304.123 327.059,302.789 330.5,300C 337.193,299.544 343.527,297.877 349.5,295C 358.485,294.253 367.151,292.253 375.5,289C 382.863,289.313 389.863,287.98 396.5,285C 408.971,284.302 421.304,282.636 433.5,280C 457.484,278.556 481.484,278.223 505.5,279C 523.11,281.099 540.777,283.099 558.5,285C 578.44,290.202 598.44,295.202 618.5,300C 619.167,300.667 619.833,301.333 620.5,302C 628.267,304.053 635.934,306.386 643.5,309C 645.5,310.333 647.5,311.667 649.5,313C 655.807,315.282 662.141,317.616 668.5,320C 669.5,321 670.5,322 671.5,323C 677.167,325.333 682.833,327.667 688.5,330C 718.88,347.041 747.88,366.374 775.5,388C 777.5,388.667 779.5,388.667 781.5,388C 782.878,386.287 784.545,384.953 786.5,384C 812.619,353.912 843.952,330.579 880.5,314C 884.248,314.22 887.248,312.887 889.5,310C 892.424,309.012 895.424,308.346 898.5,308C 900.888,306.139 903.554,304.806 906.5,304C 914.847,300.84 923.514,298.84 932.5,298C 934.949,297.275 937.283,296.275 939.5,295C 950.066,294.108 960.399,292.108 970.5,289C 976.5,288.667 982.5,288.333 988.5,288C 995.299,285.623 1002.3,284.289 1009.5,284C 1029.58,283.859 1049.58,282.525 1069.5,280C 1182.49,278.418 1295.49,278.084 1408.5,279C 1412.39,280.937 1414.05,284.103 1413.5,288.5C 1411.35,294.919 1409.85,301.586 1409,308.5C 1403.09,322.428 1398.09,336.761 1394,351.5C 1391.13,354.94 1389.47,358.94 1389,363.5C 1385.86,370.574 1382.53,377.574 1379,384.5C 1372.61,396.285 1365.94,407.952 1359,419.5C 1344.12,441.222 1327.79,461.889 1310,481.5C 1249.02,542.84 1177.52,586.007 1095.5,611C 1090.34,614.171 1084.67,615.838 1078.5,616C 1073.38,619.365 1067.72,621.031 1061.5,621C 1055.76,624.683 1049.42,626.35 1042.5,626C 1040.5,627 1038.5,628 1036.5,629C 1031.07,629.676 1025.74,630.676 1020.5,632C 1025.74,633.382 1030.74,635.382 1035.5,638C 1044.39,638.593 1053.06,640.26 1061.5,643C 1103.83,644.911 1146.16,644.911 1188.5,643C 1201.3,639.874 1214.3,638.207 1227.5,638C 1236.3,634.445 1245.47,632.612 1255,632.5C 1257.41,632.703 1259.41,633.703 1261,635.5C 1261.11,642.884 1260.44,650.217 1259,657.5C 1258,659.167 1257,660.833 1256,662.5C 1255.66,666.558 1254.99,670.558 1254,674.5C 1251.07,683.967 1247.73,693.3 1244,702.5C 1242.62,703.551 1241.62,704.884 1241,706.5C 1240.65,709.576 1239.99,712.576 1239,715.5C 1233.11,725.027 1228.11,735.027 1224,745.5C 1195.69,794.463 1158.86,835.797 1113.5,869.5C 1109.61,871.901 1105.61,874.068 1101.5,876C 1100.83,877 1100.17,878 1099.5,879C 1094.59,880.929 1089.92,883.262 1085.5,886C 1083.23,888.968 1080.23,890.634 1076.5,891C 1075.5,892 1074.5,893 1073.5,894C 1062.56,898.47 1051.89,903.47 1041.5,909C 1038.58,909.988 1035.58,910.654 1032.5,911C 1030.88,911.615 1029.55,912.615 1028.5,914C 1018.6,917.641 1008.6,920.975 998.5,924C 982.75,928.066 966.75,931.399 950.5,934C 943.856,934.887 937.189,935.554 930.5,936C 926.756,939.027 922.423,940.693 917.5,941C 909.684,946.818 902.517,953.318 896,960.5C 868.193,1014.97 832.027,1063.14 787.5,1105C 771.674,1118.73 755.341,1131.73 738.5,1144C 736.051,1144.72 733.717,1145.72 731.5,1147C 725.89,1151.78 719.89,1155.95 713.5,1159.5C 696.975,1167.1 680.642,1175.26 664.5,1184C 656.944,1185.95 649.611,1188.28 642.5,1191C 638.059,1194.26 633.059,1195.92 627.5,1196C 623.137,1199.35 618.137,1201.01 612.5,1201C 606.627,1204.18 600.293,1205.84 593.5,1206C 591.5,1207 589.5,1208 587.5,1209C 568.33,1213.07 548.997,1216.41 529.5,1219C 488.834,1222.32 448.167,1222.32 407.5,1219C 389.98,1216.52 372.646,1213.19 355.5,1209C 353.725,1207.56 351.725,1206.56 349.5,1206C 343.284,1206.03 337.618,1204.36 332.5,1201C 326.509,1201.17 321.176,1199.51 316.5,1196C 309.212,1193.7 301.879,1191.37 294.5,1189C 293.953,1188.08 293.287,1187.24 292.5,1186.5C 289.49,1185.73 286.49,1184.9 283.5,1184C 273.737,1178.45 263.737,1173.45 253.5,1169C 249.605,1166.77 245.938,1164.27 242.5,1161.5C 238.893,1160.76 235.893,1159.09 233.5,1156.5C 228.915,1154.57 224.581,1152.24 220.5,1149.5C 219.618,1148.24 218.618,1147.07 217.5,1146C 213.374,1144.03 209.374,1141.87 205.5,1139.5C 191.096,1127.96 176.429,1116.46 161.5,1105C 143.613,1088.45 126.446,1071.28 110,1053.5C 99.4248,1040.02 89.0914,1026.35 79,1012.5C 75.2529,1005.34 71.2529,998.337 67,991.5C 66.0754,990.953 65.2421,990.287 64.5,989.5C 62.0947,984.933 59.928,980.266 58,975.5C 55.0082,972.875 53.3415,969.542 53,965.5C 50.0082,962.875 48.3415,959.542 48,955.5C 44.0548,946.579 39.7215,937.912 35,929.5C 34.3886,924.687 32.7219,920.354 30,916.5C 25.7295,900.02 20.7295,883.686 15,867.5C 14.417,859.896 12.7504,852.563 10,845.5C 8.97738,839.207 8.31072,832.874 8,826.5C 7.74971,823.246 6.74971,820.246 5,817.5C 3.81115,796.959 1.97782,776.626 -0.5,756.5 Z M 519.5,881.5 C 518.833,881.5 518.5,881.833 518.5,882.5C 511.137,883.136 504.137,884.97 497.5,888C 433.791,894.557 384.958,871.057 351,817.5C 350.674,813.148 349.007,809.481 346,806.5C 345.499,801.655 343.832,797.322 341,793.5C 340.604,787.081 338.937,781.081 336,775.5C 335.333,759.833 335.333,744.167 336,728.5C 338.576,716.963 341.909,705.629 346,694.5C 349.06,691.048 351.06,687.048 352,682.5C 357.423,675.983 362.09,668.983 366,661.5C 372.504,654.663 379.338,648.163 386.5,642C 395.153,636.86 403.486,631.526 411.5,626C 420.314,622.297 429.314,618.963 438.5,616C 449.928,615.119 461.262,613.619 472.5,611.5C 524.626,613.883 564.626,636.883 592.5,680.5C 596.29,687.082 599.79,693.749 603,700.5C 603.289,706.002 604.956,711.002 608,715.5C 608.497,723.977 609.83,732.31 612,740.5C 613.016,794.798 591.182,837.298 546.5,868C 537.245,872.235 528.245,876.735 519.5,881.5 Z"/></g>
<g><path style="opacity:1" fill="#fafafa" d="M 519.5,881.5 C 520.547,882.078 520.38,882.744 519,883.5C 518.601,883.272 518.435,882.938 518.5,882.5C 518.5,881.833 518.833,881.5 519.5,881.5 Z"/></g>
</svg>
